# xmcd CD database file
#
# Track frame offsets:
#	150
#	12515
#	24457
#	36840
#	50142
#	64340
#	79012
#	91617
#	103365
#	118562
#	130700
#	142902
#	156362
#	170432
#	187167
#	201120
#	214225
#	225882
#
# Disc length: 3200 seconds
#
# Revision: 0
# Processed by: cddbd v1.5.2PL0 Copyright (c) Steve Scherf et al.
# Submitted via: CDex 1.70beta2
#
DISCID=f70c7e12
DTITLE=louis armstron - Masters of jazz
DYEAR=2001
DGENRE=Jazz
TTITLE0=so little time
TTITLE1=mexican swing
TTITLE2=la cucarracha
TTITLE3=i ouble dare you
TTITLE4=iv've got a heart full of rhythm
TTITLE5=lazy bones
TTITLE6=naturally
TTITLE7=it´s wonderful
TTITLE8=rockin´ chair
TTITLE9=sun showrs
TTITLE10=yours and mine
TTITLE11=That flat foot flogie(whit the mills brothers)
TTITLE12=cuban pete
TTITLE13=wrap your troubles in drems
TTITLE14=true confessin
TTITLE15=the trumpet players lament
TTITLE16=satchel mouth swing
TTITLE17=nobody knows the trouble i´ve seen
EXTD=YEAR: 2001
EXTT0=
EXTT1=
EXTT2=
EXTT3=
EXTT4=
EXTT5=
EXTT6=
EXTT7=
EXTT8=
EXTT9=
EXTT10=
EXTT11=
EXTT12=
EXTT13=
EXTT14=
EXTT15=
EXTT16=
EXTT17=
PLAYORDER=
